<svg id="Layer_1" data-name="Layer 1" xmlns="http://www.w3.org/2000/svg" viewBox="0 0 251.06 183.17"><defs><style>.cls-1{fill:#535453;}</style></defs><title>traa-SocialMedia-icon</title><path class="cls-1" d="M224.62,30c-5.86-10.42-12.22-12.34-25.16-13.06-12.94-.88-45.46-1.25-73.63-1.25s-60.76.37-73.68,1.23S32.85,19.57,26.94,30,17.8,58.34,17.8,89.9V90c0,31.43,3.11,49.49,9.14,59.79S39.21,162.11,52.13,163s45.47,1.2,73.7,1.2,60.69-.44,73.64-1.18,19.31-2.77,25.17-13.19c6.08-10.3,9.16-28.37,9.16-59.8v-.1C233.8,58.34,230.72,40.41,224.62,30ZM98.8,130.44v-81l67.5,40.5Z"/></svg>