<svg id="Layer_1" data-name="Layer 1" xmlns="http://www.w3.org/2000/svg" viewBox="0 0 302.4 282.71"><defs><style>.cls-1{fill:#535453;}</style></defs><title>traa-SocialMedia-icon</title><path class="cls-1" d="M250,81.42C244.16,71,237.8,69.08,224.85,68.35s-45.45-1.24-73.62-1.24-60.77.36-73.69,1.22S58.25,71,52.34,81.42s-9.14,28.33-9.14,59.9v.1c0,31.43,3.1,49.49,9.14,59.8s12.27,12.31,25.19,13.18,45.47,1.21,73.7,1.21,60.69-.45,73.64-1.19,19.3-2.77,25.16-13.19c6.09-10.3,9.17-28.36,9.17-59.79v-.11C259.2,109.75,256.12,91.82,250,81.42ZM124.2,181.86v-81l67.5,40.5Z"/></svg>