<svg id="Layer_1" data-name="Layer 1" xmlns="http://www.w3.org/2000/svg" viewBox="0 0 302.4 282.71"><defs><style>.cls-1{fill:#535453;}</style></defs><title>traa-SocialMedia-icon</title><path class="cls-1" d="M259.2,74.38a92.27,92.27,0,0,1-25.52,7A44.06,44.06,0,0,0,253.16,56.9a88.37,88.37,0,0,1-28.08,10.72A44.27,44.27,0,0,0,148.49,97.9a45.6,45.6,0,0,0,1,10.1A125.35,125.35,0,0,1,58.24,61.68a44.29,44.29,0,0,0,13.61,59.18,43.69,43.69,0,0,1-20-5.45v.49a44.49,44.49,0,0,0,35.48,43.51,44.5,44.5,0,0,1-11.61,1.45,39.46,39.46,0,0,1-8.39-.75A44.72,44.72,0,0,0,108.7,191a89,89,0,0,1-54.9,18.88,82,82,0,0,1-10.6-.61,124.65,124.65,0,0,0,67.93,19.88c81.49,0,126-67.5,126-126,0-2-.07-3.85-.17-5.73A88.12,88.12,0,0,0,259.2,74.38Z"/></svg>