<svg id="Layer_1" data-name="Layer 1" xmlns="http://www.w3.org/2000/svg" viewBox="0 0 302.4 282.71"><defs><style>.cls-1{fill:#535453;}</style></defs><title>traa-SocialMedia-icon</title><path class="cls-1" d="M191.7,33.36h-81a67.51,67.51,0,0,0-67.5,67.5v81a67.51,67.51,0,0,0,67.5,67.5h81a67.51,67.51,0,0,0,67.5-67.5v-81A67.51,67.51,0,0,0,191.7,33.36ZM239,181.86a47.31,47.31,0,0,1-47.25,47.25h-81a47.3,47.3,0,0,1-47.25-47.25v-81A47.3,47.3,0,0,1,110.7,53.61h81A47.3,47.3,0,0,1,239,100.86Z"/><path class="cls-1" d="M151.2,87.36a54,54,0,1,0,54,54A54,54,0,0,0,151.2,87.36Zm0,87.75A33.75,33.75,0,1,1,185,141.36,33.8,33.8,0,0,1,151.2,175.11Z"/><circle class="cls-1" cx="209.25" cy="83.31" r="7.2"/></svg>