<svg id="Layer_1" data-name="Layer 1" xmlns="http://www.w3.org/2000/svg" viewBox="0 0 249.13 249.13"><defs><style>.cls-1{fill:#535453;}</style></defs><title>traa-SocialMedia-icon</title><path class="cls-1" d="M165.11,18.32h-81a67.51,67.51,0,0,0-67.5,67.5v81a67.51,67.51,0,0,0,67.5,67.5h81a67.51,67.51,0,0,0,67.5-67.5v-81A67.51,67.51,0,0,0,165.11,18.32Zm47.25,148.5a47.3,47.3,0,0,1-47.25,47.25h-81a47.3,47.3,0,0,1-47.25-47.25v-81A47.3,47.3,0,0,1,84.11,38.57h81a47.31,47.31,0,0,1,47.25,47.25Z"/><path class="cls-1" d="M124.61,72.32a54,54,0,1,0,54,54A54,54,0,0,0,124.61,72.32Zm0,87.75a33.75,33.75,0,1,1,33.75-33.75A33.79,33.79,0,0,1,124.61,160.07Z"/><circle class="cls-1" cx="182.66" cy="68.27" r="7.2"/></svg>